<?xml version="1.0" encoding="iso-8859-1"?>
<!-- Uploaded to: SVG Repo, www.svgrepo.com, Generator: SVG Repo Mixer Tools -->
<svg fill="#000000" version="1.1" id="Layer_1" xmlns="http://www.w3.org/2000/svg" xmlns:xlink="http://www.w3.org/1999/xlink" 
	 viewBox="0 0 199.525 199.525" xml:space="preserve">
<g>
	<g>
		<g>
			<path d="M131.169,18.474c-35.779,0-64.301,12.769-67.943,29.682C27.39,49.398,0,63.484,0,81.288
				c0,6.735,3.823,13.087,11.085,18.467v55.46c0,14.246,11.617,25.836,25.897,25.836H99.73c14.28,0,25.897-11.59,25.897-25.836
				v-3.724h38.762c13.592,0,24.65-11.063,24.65-24.663v-56.93c6.87-5.299,10.486-11.514,10.486-18.067
				C199.525,33.125,169.501,18.474,131.169,18.474z M119.796,94.825c-1.113,0.747-1.732,2.039-1.622,3.374
				c0.041,0.507,0.063,1.018,0.063,1.534v55.481c0,10.172-8.303,18.446-18.507,18.446H36.982c-10.204,0-18.507-8.274-18.507-18.446
				V99.734c0-0.516,0.022-1.026,0.063-1.533c0.11-1.335-0.509-2.627-1.622-3.374c-4.346-2.92-9.526-7.639-9.526-13.539
				c0-12.243,23.57-25.303,58.85-25.816c0.093,0.007,0.174,0.054,0.269,0.054c0.12,0,0.221-0.057,0.338-0.069
				c0.509-0.005,0.995-0.034,1.509-0.034c36.469,0,60.966,13.374,60.966,25.864C129.322,87.187,124.142,91.906,119.796,94.825z
				 M183.221,65.007c-0.985,0.693-1.571,1.82-1.571,3.024v58.798c0,9.524-7.743,17.273-17.26,17.273h-38.762V99.755
				c7.262-5.38,11.085-11.732,11.085-18.467c0-18.217-28.676-32.537-65.734-33.192c4.259-11.33,27.333-22.232,60.192-22.232
				c36.469,0,60.966,13.427,60.966,25.967C192.136,57.546,187.288,62.151,183.221,65.007z"/>
			<rect x="40.644" y="70.202" width="7.39" height="7.39"/>
			<rect x="51.729" y="81.288" width="7.39" height="7.39"/>
			<rect x="125.627" y="48.033" width="7.39" height="7.39"/>
			<rect x="59.119" y="70.202" width="7.39" height="7.39"/>
			<rect x="133.017" y="36.948" width="7.39" height="7.39"/>
			<rect x="66.508" y="84.982" width="7.39" height="7.39"/>
			<rect x="140.407" y="51.729" width="7.39" height="7.39"/>
			<rect x="88.678" y="70.202" width="7.39" height="7.39"/>
			<rect x="162.576" y="36.948" width="7.39" height="7.39"/>
			<rect x="73.898" y="73.898" width="7.39" height="7.39"/>
			<rect x="81.288" y="84.982" width="7.39" height="7.39"/>
			<rect x="55.424" y="92.372" width="7.39" height="7.39"/>
		</g>
	</g>
</g>
</svg>